<?xml version="1.0" encoding="UTF-8"?>
<svg width="514px" height="288px" viewBox="0 0 514 288" version="1.1" xmlns="http://www.w3.org/2000/svg" xmlns:xlink="http://www.w3.org/1999/xlink">
    <title>Combined Shape</title>
    <g id="Page-1" stroke="none" stroke-width="1" fill="none" fill-rule="evenodd">
        <g id="11″-iPad-Pro" transform="translate(-107.000000, -114.000000)" fill="#D8D8D8" stroke="#FFFFFF" stroke-width="16">
            <path d="M198.495751,393.495751 L537.465743,393.491 L538.281646,393.485044 C558.845501,393.142329 577.407879,384.57685 590.825052,370.935897 C604.227549,357.309864 612.495751,338.618352 612.495751,317.995751 C612.495751,297.147002 604.045126,278.272002 590.382313,264.609189 C576.7195,250.946376 557.8445,242.495751 536.995751,242.495751 C527.561363,242.495751 518.530554,244.223866 510.208659,247.38641 C506.848206,248.663472 503.556674,250.192172 500.361937,251.973615 C500.20385,248.298636 499.894625,244.606597 499.42927,240.906484 C495.205246,207.320533 478.682778,177.564382 454.52112,156.280742 C430.647754,135.251054 399.31116,122.495751 364.995751,122.495751 C333.319823,122.495751 304.181695,133.363573 281.110073,151.577012 C257.557648,170.170013 240.321334,196.412987 233.163517,226.560774 C232.457084,229.536176 231.855441,232.521729 231.356975,235.512594 C228.598553,234.296105 225.796074,233.23727 222.961832,232.338563 C215.085947,229.841208 206.697994,228.495751 197.995751,228.495751 C175.214005,228.495751 154.589005,237.729878 139.659441,252.659441 C124.736797,267.582086 115.504311,288.19489 115.495757,310.96408 L115.507344,312.394345 C115.880195,334.867335 125.240098,355.153251 140.147219,369.815821 C155.0366,384.46094 175.461106,393.495751 197.995751,393.495751 L198.495751,393.495751 Z" id="Combined-Shape" transform="translate(363.995751, 257.995751) scale(-1, 1) translate(-363.995751, -257.995751) "></path>
        </g>
    </g>
</svg>