<?xml version="1.0" encoding="utf-8"?>
<!-- Generator: Adobe Illustrator 24.0.1, SVG Export Plug-In . SVG Version: 6.00 Build 0)  -->
<svg version="1.1" id="Layer_1" xmlns="http://www.w3.org/2000/svg" xmlns:xlink="http://www.w3.org/1999/xlink" x="0px" y="0px"
	 viewBox="0 0 348 351" style="enable-background:new 0 0 348 351;" xml:space="preserve">
<style type="text/css">
	.st0{fill-rule:evenodd;clip-rule:evenodd;fill:#FFFFFF;}
</style>
<title>Group 2</title>
<path class="st0" d="M348,168l-75.8-41.6L295,48l-81.6,23.8L174,0l-39.3,71.5L54,48l23,78.8L0,169l73,40.1L48,295l82.1-23.9L174,351
	l43.4-79.1L300,296l-25.5-87.6L348,168z M246.4,176.5c-3.2,3.4-7.6,5.2-12,5.2c-4,0-8.1-1.5-11.2-4.5l-32.8-30.9v96.3
	c0,9.1-7.3,16.4-16.4,16.4s-16.4-7.3-16.4-16.4v-96.3l-32.8,30.9c-3.2,3-7.2,4.5-11.2,4.5c-4.4,0-8.7-1.7-12-5.2
	c-6.2-6.6-5.9-17,0.7-23.2l60.5-56.9c0.1-0.1,0.2-0.1,0.3-0.2s0.3-0.3,0.4-0.4c0.1-0.1,0.3-0.2,0.4-0.3c0.2-0.1,0.3-0.2,0.5-0.4
	c0.1-0.1,0.3-0.2,0.4-0.3c0.1-0.1,0.3-0.2,0.4-0.3c0.2-0.1,0.4-0.2,0.5-0.3c0.1-0.1,0.3-0.2,0.4-0.2c0.1-0.1,0.3-0.1,0.4-0.2
	c0.2-0.1,0.4-0.2,0.6-0.3c0.1-0.1,0.3-0.1,0.4-0.2c0.2-0.1,0.3-0.1,0.5-0.2s0.4-0.2,0.6-0.2c0.1,0,0.3-0.1,0.4-0.1
	c0.2-0.1,0.3-0.1,0.5-0.1c0.2-0.1,0.4-0.1,0.6-0.2c0.1,0,0.3-0.1,0.4-0.1c0.2,0,0.3-0.1,0.5-0.1s0.4-0.1,0.6-0.1
	c0.2,0,0.3,0,0.5-0.1c0.2,0,0.3,0,0.5,0s0.4,0,0.6,0c0.2,0,0.4,0,0.5,0s0.2,0,0.2,0c0.1,0,0.2,0,0.2,0c0.2,0,0.4,0,0.5,0
	c0.2,0,0.4,0,0.6,0c0.2,0,0.3,0,0.5,0s0.3,0,0.5,0.1c0.2,0,0.4,0.1,0.6,0.1c0.2,0,0.3,0.1,0.5,0.1c0.1,0,0.3,0.1,0.4,0.1
	c0.2,0.1,0.4,0.1,0.6,0.2c0.2,0,0.3,0.1,0.5,0.1c0.1,0,0.3,0.1,0.4,0.1c0.2,0.1,0.4,0.2,0.6,0.2c0.2,0.1,0.3,0.1,0.5,0.2
	c0.1,0.1,0.3,0.1,0.4,0.2c0.2,0.1,0.4,0.2,0.6,0.3c0.1,0.1,0.3,0.1,0.4,0.2c0.1,0.1,0.3,0.2,0.4,0.2c0.2,0.1,0.4,0.2,0.5,0.3
	c0.1,0.1,0.3,0.2,0.4,0.3c0.1,0.1,0.3,0.2,0.4,0.3c0.2,0.1,0.3,0.2,0.5,0.4c0.1,0.1,0.3,0.2,0.4,0.3c0.1,0.1,0.3,0.3,0.4,0.4
	c0.1,0.1,0.2,0.1,0.3,0.2l60.5,56.9C252.3,159.5,252.6,169.9,246.4,176.5z"/>
</svg>
