<?xml version="1.0" encoding="utf-8"?>
<!-- Generator: Adobe Illustrator 24.0.1, SVG Export Plug-In . SVG Version: 6.00 Build 0)  -->
<svg version="1.1" id="Layer_1" xmlns="http://www.w3.org/2000/svg" xmlns:xlink="http://www.w3.org/1999/xlink" x="0px" y="0px"
	 viewBox="0 0 348 351" style="enable-background:new 0 0 348 351;" xml:space="preserve">
<style type="text/css">
	.st0{fill-rule:evenodd;clip-rule:evenodd;fill:#FFFFFF;}
</style>
<title>Group 2</title>
<path class="st0" d="M0,183l75.8,41.6L53,303l81.6-23.8L174,351l39.3-71.5L294,303l-23-78.8l77-42.2l-73-40.1L300,56l-82.1,23.9
	L174,0l-43.4,79.1L48,55l25.5,87.6L0,183z M101.6,174.5c3.2-3.4,7.6-5.2,12-5.2c4,0,8.1,1.5,11.2,4.5l32.8,30.9v-96.3
	c0-9.1,7.3-16.4,16.4-16.4s16.4,7.3,16.4,16.4v96.3l32.8-30.9c3.2-3,7.2-4.5,11.2-4.5c4.4,0,8.7,1.7,12,5.2c6.2,6.6,5.9,17-0.7,23.2
	l-60.5,56.9c-0.1,0.1-0.2,0.1-0.3,0.2c-0.1,0.1-0.3,0.3-0.4,0.4c-0.1,0.1-0.3,0.2-0.4,0.3c-0.2,0.1-0.3,0.2-0.5,0.4
	c-0.1,0.1-0.3,0.2-0.4,0.3c-0.1,0.1-0.3,0.2-0.4,0.3c-0.2,0.1-0.4,0.2-0.5,0.3c-0.1,0.1-0.3,0.2-0.4,0.2c-0.1,0.1-0.3,0.1-0.4,0.2
	c-0.2,0.1-0.4,0.2-0.6,0.3c-0.1,0.1-0.3,0.1-0.4,0.2c-0.2,0.1-0.3,0.1-0.5,0.2s-0.4,0.2-0.6,0.2c-0.1,0-0.3,0.1-0.4,0.1
	c-0.2,0.1-0.3,0.1-0.5,0.1c-0.2,0.1-0.4,0.1-0.6,0.2c-0.1,0-0.3,0.1-0.4,0.1c-0.2,0-0.3,0.1-0.5,0.1s-0.4,0.1-0.6,0.1
	c-0.2,0-0.3,0-0.5,0.1c-0.2,0-0.3,0-0.5,0s-0.4,0-0.6,0c-0.2,0-0.4,0-0.5,0s-0.2,0-0.2,0c-0.1,0-0.2,0-0.2,0c-0.2,0-0.4,0-0.5,0
	c-0.2,0-0.4,0-0.6,0c-0.2,0-0.3,0-0.5,0s-0.3,0-0.5-0.1c-0.2,0-0.4-0.1-0.6-0.1c-0.2,0-0.3-0.1-0.5-0.1c-0.1,0-0.3-0.1-0.4-0.1
	c-0.2-0.1-0.4-0.1-0.6-0.2c-0.2,0-0.3-0.1-0.5-0.1c-0.1,0-0.3-0.1-0.4-0.1c-0.2-0.1-0.4-0.2-0.6-0.2c-0.2-0.1-0.3-0.1-0.5-0.2
	c-0.1-0.1-0.3-0.1-0.4-0.2c-0.2-0.1-0.4-0.2-0.6-0.3c-0.1-0.1-0.3-0.1-0.4-0.2c-0.1-0.1-0.3-0.2-0.4-0.2c-0.2-0.1-0.4-0.2-0.5-0.3
	c-0.1-0.1-0.3-0.2-0.4-0.3c-0.1-0.1-0.3-0.2-0.4-0.3c-0.2-0.1-0.3-0.2-0.5-0.4c-0.1-0.1-0.3-0.2-0.4-0.3c-0.1-0.1-0.3-0.3-0.4-0.4
	c-0.1-0.1-0.2-0.1-0.3-0.2l-60.5-56.9C95.7,191.5,95.4,181.1,101.6,174.5z"/>
</svg>
